<?xml version="1.0" encoding="utf-8"?>
<svg viewBox="0 0 500 500" xmlns="http://www.w3.org/2000/svg">
  <defs>
    <filter x="0%" y="0%" width="100%" height="100%" id="e653de2725">
      <feColorMatrix values="0 0 0 0 1 0 0 0 0 1 0 0 0 0 1 0 0 0 1 0" color-interpolation-filters="sRGB"/>
    </filter>
    <g/>
    <mask id="175807e9ca">
      <g filter="url(#e653de2725)">
        <rect x="-37.5" width="450" fill="#000000" y="-37.499999" height="449.999989" fill-opacity="0.67"/>
      </g>
    </mask>
    <clipPath id="1ca17635d9">
      <path d="M 0.253906 0.773438 L 109 0.773438 L 109 136.523438 L 0.253906 136.523438 Z M 0.253906 0.773438 " clip-rule="nonzero"/>
    </clipPath>
    <clipPath id="8c9b6a6e50">
      <rect x="0" width="109" y="0" height="138"/>
    </clipPath>
  </defs>
  <rect x="17.613" width="450" fill="#ffffff" y="-28.409" height="450" fill-opacity="1"/>
  <g mask="url(#175807e9ca)" transform="matrix(1, 0, 0, 1, 55.11364, 9.090908)">
    <g transform="matrix(1, 0, 0, 1, 131, 112)">
      <g clip-path="url(#8c9b6a6e50)">
        <g clip-path="url(#1ca17635d9)">
          <path d="M 44.402344 82.6875 C 44.300781 82.609375 44.199219 82.527344 44.097656 82.445312 C 43.730469 82.898438 43.363281 83.351562 42.996094 83.804688 C 43.109375 83.894531 43.222656 83.980469 43.335938 84.070312 C 43.691406 83.609375 44.046875 83.148438 44.402344 82.6875 Z M 79.726562 50.3125 C 79.613281 50.210938 79.503906 50.105469 79.390625 50.003906 C 79.042969 50.378906 78.691406 50.753906 78.34375 51.128906 C 78.457031 51.234375 78.570312 51.339844 78.6875 51.445312 C 79.03125 51.070312 79.378906 50.691406 79.726562 50.3125 Z M 76.324219 54.480469 C 76.199219 54.375 76.078125 54.273438 75.953125 54.167969 C 75.59375 54.59375 75.230469 55.023438 74.871094 55.449219 C 75 55.558594 75.125 55.664062 75.253906 55.773438 C 75.613281 55.34375 75.96875 54.910156 76.324219 54.480469 Z M 73.519531 57.871094 C 73.363281 57.714844 73.203125 57.558594 73.042969 57.398438 C 72.578125 57.984375 72.113281 58.566406 71.648438 59.148438 C 71.777344 59.257812 71.90625 59.367188 72.039062 59.480469 C 72.53125 58.941406 73.027344 58.40625 73.519531 57.871094 Z M 29.808594 25.441406 C 29.992188 25.398438 30.171875 25.355469 30.355469 25.3125 C 30.246094 24.84375 30.136719 24.371094 30.027344 23.902344 C 29.851562 23.941406 29.679688 23.984375 29.507812 24.023438 C 29.609375 24.496094 29.707031 24.96875 29.808594 25.441406 Z M 37.375 91.539062 C 38.882812 90.949219 39.820312 90.066406 39.648438 87.78125 C 38.636719 89.453125 38.007812 90.496094 37.375 91.539062 Z M 80.390625 29.472656 C 80.546875 29.605469 80.707031 29.742188 80.863281 29.875 C 81.75 28.675781 82.632812 27.476562 83.515625 26.273438 C 83.265625 26.109375 83.015625 25.941406 82.765625 25.777344 C 81.972656 27.007812 81.179688 28.238281 80.390625 29.472656 Z M 38.34375 84.269531 C 38.128906 84.148438 37.917969 84.027344 37.703125 83.90625 C 36.203125 85.507812 34.929688 87.253906 34.539062 89.574219 C 35.808594 87.804688 37.074219 86.039062 38.34375 84.269531 Z M 45.566406 35.402344 C 46.863281 41.710938 48.640625 47.78125 52.683594 52.9375 C 50.3125 47.089844 47.9375 41.246094 45.566406 35.402344 Z M 62.152344 95.746094 C 62.40625 95.625 62.664062 95.5 62.917969 95.378906 C 60.96875 90.734375 59.019531 86.089844 57.058594 81.40625 C 55.097656 82.308594 55.550781 83.667969 56.042969 84.625 C 57.988281 88.378906 60.101562 92.046875 62.152344 95.746094 Z M 42.632812 67.757812 C 42.785156 64.546875 40.671875 62.382812 39.671875 59.839844 C 38.628906 57.1875 37.308594 54.640625 36.109375 52.046875 C 34.863281 49.351562 33.605469 46.65625 32.375 43.953125 C 31.257812 41.503906 30.175781 39.039062 29.078125 36.578125 C 30.105469 44.132812 39.632812 65.476562 42.632812 67.757812 Z M 69.199219 95.929688 C 69.113281 95.359375 69.160156 94.714844 68.914062 94.222656 C 66.253906 88.917969 63.550781 83.632812 60.84375 78.347656 C 60.691406 78.050781 60.378906 77.832031 60.144531 77.578125 C 59.9375 77.699219 59.726562 77.824219 59.519531 77.945312 C 60.050781 79.082031 60.554688 80.234375 61.121094 81.355469 C 61.757812 82.617188 62.421875 83.867188 63.121094 85.09375 C 65.164062 88.683594 67.234375 92.265625 69.292969 95.847656 C 71.0625 100.941406 73.945312 105.433594 76.914062 109.886719 C 75.460938 106.441406 73.742188 103.136719 71.910156 99.890625 C 71.125 98.503906 70.109375 97.246094 69.199219 95.929688 Z M 94.226562 29.199219 C 94.988281 28.617188 95.757812 28.03125 96.519531 27.449219 C 96.292969 27.25 96.066406 27.050781 95.839844 26.851562 C 95.324219 27.660156 94.8125 28.46875 94.300781 29.277344 C 92.9375 30.628906 91.578125 31.984375 90.214844 33.339844 C 92.050781 32.398438 93.875 31.421875 94.226562 29.199219 Z M 64.21875 57.078125 C 65.421875 56 66.738281 55.023438 67.804688 53.828125 C 76.839844 43.675781 85.769531 33.433594 94.859375 23.332031 C 97.804688 20.0625 101.101562 17.105469 104.304688 14.082031 C 105.105469 13.328125 106.175781 12.859375 107.082031 12.285156 C 108.613281 13.832031 107.765625 14.785156 106.925781 15.628906 C 105.414062 17.148438 103.804688 18.578125 102.273438 20.078125 C 101.378906 20.953125 100.550781 21.890625 99.886719 23.011719 C 102.953125 22.304688 104.132812 18.308594 108.652344 18.539062 C 92.148438 36.523438 77.769531 55.25 62.59375 73.875 C 66.691406 82.070312 70.714844 90.152344 74.777344 98.21875 C 76.382812 101.410156 78.363281 104.449219 79.636719 107.761719 C 81.371094 112.28125 82.589844 116.996094 84.03125 121.625 C 82.296875 122.152344 82.296875 122.152344 78.421875 117.25 C 77.851562 118.644531 77.492188 120.667969 75.367188 118.796875 C 75.402344 122.070312 78.519531 124.316406 77.539062 128.414062 C 75.632812 126.707031 74.265625 125.480469 72.898438 124.257812 C 72.734375 124.371094 72.570312 124.488281 72.410156 124.605469 C 72.753906 125.882812 73.097656 127.160156 73.601562 129.027344 C 72.558594 128.589844 71.765625 128.507812 71.53125 128.105469 C 70.9375 127.085938 70.550781 125.9375 70.15625 124.816406 C 66.074219 113.28125 59.753906 102.886719 53.652344 92.382812 C 52.882812 91.054688 52.109375 89.726562 51.050781 87.914062 C 49.960938 89.34375 49.058594 90.507812 48.175781 91.691406 C 40.835938 101.515625 33.539062 111.367188 26.148438 121.152344 C 22.632812 125.808594 18.964844 130.355469 15.308594 134.90625 C 14.761719 135.585938 13.898438 136.015625 13.078125 136.640625 C 11.15625 134.191406 14.085938 132.902344 13.984375 130.582031 C 11.398438 132.238281 10.859375 136.445312 6.65625 135.738281 C 7.433594 134.160156 8.089844 132.832031 8.773438 131.441406 C 7.433594 131.382812 6.238281 131.332031 4.851562 131.269531 C 3.691406 132.09375 3.394531 134.601562 0.269531 134.167969 C 1.558594 132.265625 2.527344 130.84375 3.496094 129.421875 C 4.328125 128.199219 4.914062 127.183594 4.8125 125.371094 C 4.703125 123.351562 6.003906 121.0625 7.179688 119.199219 C 10.289062 114.273438 13.652344 109.503906 16.9375 104.6875 C 23.03125 95.761719 29.128906 86.839844 35.246094 77.929688 C 36.664062 75.867188 38.089844 73.800781 39.65625 71.851562 C 40.792969 70.441406 40.75 69.214844 39.992188 67.617188 C 36.886719 61.058594 33.714844 54.515625 30.945312 47.808594 C 28.683594 42.324219 26.929688 36.625 25.015625 31 C 24.410156 29.214844 24.464844 27.46875 26.230469 26.277344 C 25.753906 24.566406 25.507812 22.875 24.820312 21.390625 C 23.480469 18.496094 24.152344 16.34375 26.773438 14.632812 C 29.15625 14.535156 28.113281 17.042969 29.34375 18.085938 C 30.003906 17.925781 30.761719 17.738281 31.859375 17.46875 C 33.664062 22.703125 35.445312 27.871094 37.226562 33.042969 C 37.484375 32.972656 37.742188 32.902344 38 32.828125 C 37.941406 32.207031 37.996094 31.546875 37.804688 30.96875 C 36.878906 28.144531 35.777344 25.371094 34.957031 22.515625 C 34.582031 21.210938 34.863281 19.722656 34.558594 18.382812 C 34.0625 16.214844 33.410156 14.070312 32.667969 11.96875 C 32.191406 10.628906 31.4375 9.386719 32.921875 7.730469 C 34.746094 9.625 34.613281 12.148438 35.433594 14.226562 C 36.304688 16.441406 36.972656 18.734375 37.742188 20.984375 C 38.507812 23.210938 39.292969 25.425781 40.726562 27.457031 C 40.179688 25.445312 39.59375 23.441406 39.097656 21.414062 C 38.636719 19.515625 37.175781 17.550781 39.589844 15.144531 C 42.222656 21.515625 44.171875 27.683594 46.539062 33.6875 C 48.890625 39.65625 51.253906 45.617188 53.855469 52.191406 C 55.230469 50.617188 56.289062 49.539062 57.195312 48.351562 C 67.972656 34.214844 79.253906 20.5 91.335938 7.460938 C 93.425781 5.210938 96.015625 3.421875 98.433594 1.492188 C 98.90625 1.113281 99.648438 1.074219 100.582031 0.78125 C 100.589844 4.273438 97.136719 5.496094 96.578125 8.277344 C 98.066406 10.023438 99.929688 10.636719 102.472656 9.929688 C 102.257812 10.777344 102.285156 11.304688 102.035156 11.578125 C 98.816406 15.078125 95.453125 18.449219 92.335938 22.035156 C 88.742188 26.164062 85.328125 30.449219 81.886719 34.710938 C 76.195312 41.753906 70.539062 48.828125 64.890625 55.902344 C 64.609375 56.253906 64.492188 56.738281 64.300781 57.164062 C 63.796875 57.703125 63.285156 58.238281 62.777344 58.777344 C 62.960938 58.910156 63.144531 59.042969 63.332031 59.175781 C 63.625 58.476562 63.925781 57.777344 64.21875 57.078125 " fill-opacity="1" fill-rule="nonzero" style="fill: rgb(95, 60, 39);"/>
        </g>
      </g>
    </g>
  </g>
</svg>