<svg xmlns="http://www.w3.org/2000/svg" xmlns:xlink="http://www.w3.org/1999/xlink" width="500"
    zoomAndPan="magnify" viewBox="0 0 375 374.999991" height="500"
    preserveAspectRatio="xMidYMid meet" version="1.0">
    <defs>
        <filter x="0%" y="0%" width="100%" height="100%" id="e653de2725">
            <feColorMatrix values="0 0 0 0 1 0 0 0 0 1 0 0 0 0 1 0 0 0 1 0"
                color-interpolation-filters="sRGB" />
        </filter>
        <g />
        <clipPath id="f2a8f4f8a7">
            <path d="M 112.5 120 L 252 120 L 252 255 L 112.5 255 Z M 112.5 120 " clip-rule="nonzero" />
        </clipPath>
        <mask id="9c2eabb067">
            <g filter="url(#e653de2725)">
                <rect x="-37.5" width="450" fill="#000000" y="-37.499999" height="449.999989"
                    fill-opacity="0.67" />
            </g>
        </mask>
        <clipPath id="abcad3604f">
            <path
                d="M 0.289062 0.773438 L 108.839844 0.773438 L 108.839844 136.523438 L 0.289062 136.523438 Z M 0.289062 0.773438 "
                clip-rule="nonzero" />
        </clipPath>
        <clipPath id="c40ec398b0">
            <rect x="0" width="109" y="0" height="138" />
        </clipPath>
        <mask id="175807e9ca">
            <g filter="url(#e653de2725)">
                <rect x="-37.5" width="450" fill="#000000" y="-37.499999" height="449.999989"
                    fill-opacity="0.67" />
            </g>
        </mask>
        <clipPath id="1ca17635d9">
            <path
                d="M 0.253906 0.773438 L 109 0.773438 L 109 136.523438 L 0.253906 136.523438 Z M 0.253906 0.773438 "
                clip-rule="nonzero" />
        </clipPath>
        <clipPath id="8c9b6a6e50">
            <rect x="0" width="109" y="0" height="138" />
        </clipPath>
    </defs>
    <rect x="-37.5" width="450" fill="#ffffff" y="-37.499999" height="449.999989" fill-opacity="1" />
    <rect x="-37.5" width="450" fill="#fff9de" y="-37.499999" height="449.999989" fill-opacity="1" />
    <g clip-path="url(#f2a8f4f8a7)">
        <path fill="#a6d0dd"
            d="M 139.253906 139.566406 C 137.652344 140.890625 136.179688 142.316406 134.832031 143.835938 C 135.480469 143.167969 136.152344 142.5 136.84375 141.824219 C 137.453125 141.230469 138.257812 140.476562 139.253906 139.566406 M 132.738281 140.824219 C 131.652344 141.796875 130.6875 142.722656 129.847656 143.597656 C 129.003906 144.472656 128.253906 145.316406 127.59375 146.132812 C 129.089844 144.441406 130.804688 142.671875 132.738281 140.824219 M 245.527344 172.398438 L 245.5 172.683594 L 245.492188 172.972656 L 245.507812 173.261719 L 245.546875 173.554688 L 245.617188 173.855469 L 245.714844 174.160156 L 245.847656 174.46875 L 246.015625 174.789062 L 246.222656 175.113281 L 246.46875 175.453125 L 246.761719 175.796875 L 247.101562 176.15625 C 246.652344 175.039062 246.128906 173.785156 245.527344 172.398438 M 182.496094 120.050781 L 181.589844 120.054688 C 162.675781 120.875 146.40625 127.785156 132.777344 140.792969 C 147.089844 128.238281 163.15625 121.78125 180.972656 121.410156 C 190.253906 121.472656 198.160156 122.875 204.6875 125.613281 C 214.453125 129.523438 222.257812 134.226562 228.105469 139.714844 C 232.359375 143.703125 235.527344 147.242188 237.609375 150.335938 C 232.375 142.964844 224.460938 136.597656 213.867188 131.234375 C 202.34375 125.941406 191.097656 123.296875 180.128906 123.296875 C 165.289062 123.003906 151.671875 128.421875 139.277344 139.546875 C 152.074219 129.332031 166.382812 124.800781 182.195312 125.953125 C 200.578125 127.617188 216.003906 134.199219 228.476562 145.699219 C 235.269531 152.117188 240.953125 161.015625 245.527344 172.394531 C 246.40625 169.503906 246.660156 167.765625 246.277344 167.183594 C 248.09375 172.625 249.171875 178.277344 249.511719 184.136719 C 250.742188 200.699219 245.558594 216.308594 233.96875 230.964844 C 252.988281 209.480469 256.839844 185.53125 245.519531 159.121094 C 239.359375 146.515625 231.265625 137.300781 221.246094 131.480469 C 208.714844 123.976562 195.796875 120.167969 182.496094 120.050781 M 233.945312 230.988281 L 233.46875 231.503906 C 232.023438 233.0625 230.476562 234.636719 228.828125 236.234375 L 229.945312 235.339844 L 230.1875 235.132812 C 230.257812 235.085938 230.539062 234.816406 231.035156 234.328125 C 231.449219 233.910156 231.902344 233.417969 232.390625 232.855469 L 233.148438 231.964844 L 233.945312 230.988281 M 134.808594 143.859375 L 133.632812 145.101562 C 120.25 160.101562 114.289062 176.941406 115.742188 195.621094 C 113.589844 187.589844 113.703125 179.1875 116.082031 170.417969 C 118.375 161.140625 122.207031 153.054688 127.570312 146.160156 C 118.6875 156.355469 113.8125 169.410156 112.945312 185.324219 C 112.917969 188.195312 113.398438 191.792969 114.382812 196.113281 C 117.847656 208.417969 119.875 214.945312 120.464844 215.703125 C 124.289062 224.40625 128.789062 231.164062 133.964844 235.976562 C 140.578125 242.167969 147.863281 246.8125 155.816406 249.914062 C 163.84375 253.246094 171.449219 254.847656 178.636719 254.714844 C 188.910156 254.492188 198.570312 252.960938 207.609375 250.117188 C 214.175781 247.773438 221.246094 243.152344 228.8125 236.246094 C 220.980469 242.488281 214.246094 246.480469 208.609375 248.226562 C 198.0625 251.125 188.324219 252.507812 179.394531 252.367188 C 173.796875 252.753906 165.824219 250.722656 155.476562 246.269531 C 147.921875 242.964844 141.679688 238.882812 136.753906 234.023438 C 132.820312 230.078125 129.828125 226.394531 127.78125 222.972656 C 133.875 230.289062 142.71875 237.269531 154.308594 243.917969 C 159.878906 247.023438 165.425781 249.246094 170.949219 250.59375 C 172.371094 250.917969 173.171875 251.035156 173.359375 250.945312 C 173.457031 250.910156 173.449219 250.839844 173.328125 250.734375 C 173.574219 250.902344 173.9375 250.742188 174.425781 250.253906 C 174.835938 249.757812 175.105469 249.269531 175.230469 248.785156 C 167.917969 248.617188 156.648438 243.625 141.425781 233.8125 C 132.738281 227.328125 126.199219 219.71875 121.808594 210.988281 C 117.65625 201.046875 116.757812 189.25 119.121094 175.589844 C 120.859375 164.992188 126.089844 154.414062 134.808594 143.859375 "
            fill-opacity="1" fill-rule="nonzero" />
    </g>
    <g mask="url(#9c2eabb067)">
        <g transform="matrix(1, 0, 0, 1, 135, 112)">
            <g clip-path="url(#c40ec398b0)">
                <g clip-path="url(#abcad3604f)">
                    <path fill="#ffd3b0"
                        d="M 44.4375 82.6875 C 44.335938 82.609375 44.234375 82.527344 44.132812 82.445312 C 43.765625 82.898438 43.398438 83.351562 43.03125 83.804688 C 43.144531 83.894531 43.257812 83.980469 43.371094 84.070312 C 43.726562 83.609375 44.082031 83.148438 44.4375 82.6875 Z M 79.761719 50.3125 C 79.648438 50.210938 79.535156 50.105469 79.425781 50.003906 C 79.078125 50.378906 78.726562 50.753906 78.378906 51.128906 C 78.492188 51.234375 78.605469 51.339844 78.722656 51.445312 C 79.066406 51.070312 79.414062 50.691406 79.761719 50.3125 Z M 76.359375 54.480469 C 76.234375 54.375 76.113281 54.273438 75.988281 54.167969 C 75.625 54.59375 75.265625 55.023438 74.90625 55.449219 C 75.035156 55.558594 75.160156 55.664062 75.289062 55.773438 C 75.648438 55.34375 76.003906 54.910156 76.359375 54.480469 Z M 73.554688 57.871094 C 73.398438 57.714844 73.238281 57.558594 73.078125 57.398438 C 72.613281 57.984375 72.148438 58.566406 71.683594 59.148438 C 71.8125 59.257812 71.941406 59.367188 72.074219 59.480469 C 72.566406 58.941406 73.0625 58.40625 73.554688 57.871094 Z M 29.84375 25.441406 C 30.027344 25.398438 30.207031 25.355469 30.390625 25.3125 C 30.28125 24.84375 30.171875 24.371094 30.0625 23.902344 C 29.886719 23.941406 29.714844 23.984375 29.542969 24.023438 C 29.644531 24.496094 29.742188 24.96875 29.84375 25.441406 Z M 37.410156 91.539062 C 38.917969 90.949219 39.855469 90.066406 39.683594 87.78125 C 38.671875 89.453125 38.042969 90.496094 37.410156 91.539062 Z M 80.425781 29.472656 C 80.582031 29.605469 80.742188 29.742188 80.898438 29.875 C 81.785156 28.675781 82.667969 27.476562 83.550781 26.273438 C 83.300781 26.109375 83.050781 25.941406 82.800781 25.777344 C 82.007812 27.007812 81.214844 28.238281 80.425781 29.472656 Z M 38.378906 84.269531 C 38.164062 84.148438 37.953125 84.027344 37.738281 83.90625 C 36.234375 85.507812 34.964844 87.253906 34.570312 89.574219 C 35.839844 87.804688 37.109375 86.039062 38.378906 84.269531 Z M 45.601562 35.402344 C 46.898438 41.710938 48.671875 47.78125 52.71875 52.9375 C 50.347656 47.089844 47.972656 41.246094 45.601562 35.402344 Z M 62.1875 95.746094 C 62.441406 95.625 62.699219 95.5 62.953125 95.378906 C 61.003906 90.734375 59.054688 86.089844 57.09375 81.40625 C 55.132812 82.308594 55.585938 83.667969 56.078125 84.625 C 58.019531 88.378906 60.136719 92.046875 62.1875 95.746094 Z M 42.667969 67.757812 C 42.816406 64.546875 40.707031 62.382812 39.707031 59.839844 C 38.664062 57.1875 37.34375 54.640625 36.144531 52.046875 C 34.898438 49.351562 33.640625 46.65625 32.410156 43.953125 C 31.292969 41.503906 30.210938 39.039062 29.113281 36.578125 C 30.140625 44.132812 39.667969 65.476562 42.667969 67.757812 Z M 69.234375 95.929688 C 69.148438 95.359375 69.195312 94.714844 68.949219 94.222656 C 66.289062 88.917969 63.585938 83.632812 60.878906 78.347656 C 60.726562 78.050781 60.414062 77.832031 60.179688 77.578125 C 59.972656 77.699219 59.761719 77.824219 59.554688 77.945312 C 60.085938 79.082031 60.589844 80.234375 61.15625 81.355469 C 61.792969 82.617188 62.457031 83.867188 63.15625 85.09375 C 65.199219 88.683594 67.269531 92.265625 69.328125 95.847656 C 71.097656 100.941406 73.980469 105.433594 76.949219 109.886719 C 75.496094 106.441406 73.777344 103.136719 71.945312 99.890625 C 71.160156 98.503906 70.144531 97.246094 69.234375 95.929688 Z M 94.261719 29.199219 C 95.023438 28.617188 95.789062 28.03125 96.554688 27.449219 C 96.328125 27.25 96.101562 27.050781 95.875 26.851562 C 95.359375 27.660156 94.847656 28.46875 94.335938 29.277344 C 92.972656 30.628906 91.613281 31.984375 90.25 33.339844 C 92.085938 32.398438 93.90625 31.421875 94.261719 29.199219 Z M 64.253906 57.078125 C 65.457031 56 66.773438 55.023438 67.839844 53.828125 C 76.875 43.675781 85.804688 33.433594 94.894531 23.332031 C 97.839844 20.0625 101.136719 17.105469 104.339844 14.082031 C 105.140625 13.328125 106.210938 12.859375 107.117188 12.285156 C 108.648438 13.832031 107.800781 14.785156 106.960938 15.628906 C 105.449219 17.148438 103.839844 18.578125 102.308594 20.078125 C 101.414062 20.953125 100.585938 21.890625 99.921875 23.011719 C 102.984375 22.304688 104.167969 18.308594 108.6875 18.539062 C 92.183594 36.523438 77.804688 55.25 62.628906 73.875 C 66.726562 82.070312 70.75 90.152344 74.8125 98.21875 C 76.417969 101.410156 78.398438 104.449219 79.671875 107.761719 C 81.40625 112.28125 82.625 116.996094 84.066406 121.625 C 82.332031 122.152344 82.332031 122.152344 78.457031 117.25 C 77.886719 118.644531 77.527344 120.667969 75.402344 118.796875 C 75.4375 122.070312 78.554688 124.316406 77.574219 128.414062 C 75.667969 126.707031 74.300781 125.480469 72.933594 124.257812 C 72.769531 124.371094 72.605469 124.488281 72.445312 124.605469 C 72.789062 125.882812 73.132812 127.160156 73.636719 129.027344 C 72.59375 128.589844 71.800781 128.507812 71.566406 128.105469 C 70.972656 127.085938 70.585938 125.9375 70.191406 124.816406 C 66.109375 113.28125 59.789062 102.886719 53.6875 92.382812 C 52.914062 91.054688 52.144531 89.726562 51.085938 87.914062 C 49.996094 89.34375 49.09375 90.507812 48.210938 91.691406 C 40.871094 101.515625 33.574219 111.367188 26.183594 121.152344 C 22.664062 125.808594 19 130.355469 15.34375 134.90625 C 14.792969 135.585938 13.933594 136.015625 13.113281 136.640625 C 11.191406 134.191406 14.121094 132.902344 14.019531 130.582031 C 11.433594 132.238281 10.894531 136.445312 6.691406 135.738281 C 7.46875 134.160156 8.125 132.832031 8.808594 131.441406 C 7.46875 131.382812 6.273438 131.332031 4.886719 131.269531 C 3.726562 132.09375 3.429688 134.601562 0.304688 134.167969 C 1.59375 132.265625 2.5625 130.84375 3.53125 129.421875 C 4.363281 128.199219 4.945312 127.183594 4.847656 125.371094 C 4.738281 123.351562 6.039062 121.0625 7.214844 119.199219 C 10.324219 114.273438 13.6875 109.503906 16.972656 104.6875 C 23.066406 95.761719 29.164062 86.839844 35.28125 77.929688 C 36.699219 75.867188 38.125 73.800781 39.691406 71.851562 C 40.828125 70.441406 40.785156 69.214844 40.027344 67.617188 C 36.921875 61.058594 33.75 54.515625 30.980469 47.808594 C 28.71875 42.324219 26.964844 36.625 25.050781 31 C 24.445312 29.214844 24.5 27.46875 26.265625 26.277344 C 25.789062 24.566406 25.542969 22.875 24.855469 21.390625 C 23.515625 18.496094 24.1875 16.34375 26.808594 14.632812 C 29.191406 14.535156 28.144531 17.042969 29.378906 18.085938 C 30.039062 17.925781 30.796875 17.738281 31.894531 17.46875 C 33.699219 22.703125 35.480469 27.871094 37.261719 33.042969 C 37.519531 32.972656 37.777344 32.902344 38.035156 32.828125 C 37.976562 32.207031 38.03125 31.546875 37.839844 30.96875 C 36.910156 28.144531 35.8125 25.371094 34.992188 22.515625 C 34.617188 21.210938 34.898438 19.722656 34.59375 18.382812 C 34.097656 16.214844 33.445312 14.070312 32.699219 11.96875 C 32.226562 10.628906 31.472656 9.386719 32.957031 7.730469 C 34.78125 9.625 34.648438 12.148438 35.46875 14.226562 C 36.339844 16.441406 37.003906 18.734375 37.777344 20.984375 C 38.542969 23.210938 39.328125 25.425781 40.761719 27.457031 C 40.214844 25.445312 39.628906 23.441406 39.132812 21.414062 C 38.671875 19.515625 37.210938 17.550781 39.625 15.144531 C 42.257812 21.515625 44.207031 27.683594 46.570312 33.6875 C 48.925781 39.65625 51.289062 45.617188 53.890625 52.191406 C 55.265625 50.617188 56.324219 49.539062 57.230469 48.351562 C 68.007812 34.214844 79.289062 20.5 91.371094 7.460938 C 93.460938 5.210938 96.050781 3.421875 98.46875 1.492188 C 98.941406 1.113281 99.683594 1.074219 100.617188 0.78125 C 100.625 4.273438 97.171875 5.496094 96.613281 8.277344 C 98.097656 10.023438 99.964844 10.636719 102.507812 9.929688 C 102.292969 10.777344 102.320312 11.304688 102.070312 11.578125 C 98.851562 15.078125 95.488281 18.449219 92.367188 22.035156 C 88.777344 26.164062 85.363281 30.449219 81.921875 34.710938 C 76.230469 41.753906 70.574219 48.828125 64.925781 55.902344 C 64.644531 56.253906 64.527344 56.738281 64.335938 57.164062 C 63.832031 57.703125 63.320312 58.238281 62.8125 58.777344 C 62.996094 58.910156 63.179688 59.042969 63.367188 59.175781 C 63.660156 58.476562 63.960938 57.777344 64.253906 57.078125 "
                        fill-opacity="1" fill-rule="nonzero" />
                </g>
            </g>
        </g>
    </g>
    <g mask="url(#175807e9ca)">
        <g transform="matrix(1, 0, 0, 1, 131, 112)">
            <g clip-path="url(#8c9b6a6e50)">
                <g clip-path="url(#1ca17635d9)">
                    <path fill="#a6d0dd"
                        d="M 44.402344 82.6875 C 44.300781 82.609375 44.199219 82.527344 44.097656 82.445312 C 43.730469 82.898438 43.363281 83.351562 42.996094 83.804688 C 43.109375 83.894531 43.222656 83.980469 43.335938 84.070312 C 43.691406 83.609375 44.046875 83.148438 44.402344 82.6875 Z M 79.726562 50.3125 C 79.613281 50.210938 79.503906 50.105469 79.390625 50.003906 C 79.042969 50.378906 78.691406 50.753906 78.34375 51.128906 C 78.457031 51.234375 78.570312 51.339844 78.6875 51.445312 C 79.03125 51.070312 79.378906 50.691406 79.726562 50.3125 Z M 76.324219 54.480469 C 76.199219 54.375 76.078125 54.273438 75.953125 54.167969 C 75.59375 54.59375 75.230469 55.023438 74.871094 55.449219 C 75 55.558594 75.125 55.664062 75.253906 55.773438 C 75.613281 55.34375 75.96875 54.910156 76.324219 54.480469 Z M 73.519531 57.871094 C 73.363281 57.714844 73.203125 57.558594 73.042969 57.398438 C 72.578125 57.984375 72.113281 58.566406 71.648438 59.148438 C 71.777344 59.257812 71.90625 59.367188 72.039062 59.480469 C 72.53125 58.941406 73.027344 58.40625 73.519531 57.871094 Z M 29.808594 25.441406 C 29.992188 25.398438 30.171875 25.355469 30.355469 25.3125 C 30.246094 24.84375 30.136719 24.371094 30.027344 23.902344 C 29.851562 23.941406 29.679688 23.984375 29.507812 24.023438 C 29.609375 24.496094 29.707031 24.96875 29.808594 25.441406 Z M 37.375 91.539062 C 38.882812 90.949219 39.820312 90.066406 39.648438 87.78125 C 38.636719 89.453125 38.007812 90.496094 37.375 91.539062 Z M 80.390625 29.472656 C 80.546875 29.605469 80.707031 29.742188 80.863281 29.875 C 81.75 28.675781 82.632812 27.476562 83.515625 26.273438 C 83.265625 26.109375 83.015625 25.941406 82.765625 25.777344 C 81.972656 27.007812 81.179688 28.238281 80.390625 29.472656 Z M 38.34375 84.269531 C 38.128906 84.148438 37.917969 84.027344 37.703125 83.90625 C 36.203125 85.507812 34.929688 87.253906 34.539062 89.574219 C 35.808594 87.804688 37.074219 86.039062 38.34375 84.269531 Z M 45.566406 35.402344 C 46.863281 41.710938 48.640625 47.78125 52.683594 52.9375 C 50.3125 47.089844 47.9375 41.246094 45.566406 35.402344 Z M 62.152344 95.746094 C 62.40625 95.625 62.664062 95.5 62.917969 95.378906 C 60.96875 90.734375 59.019531 86.089844 57.058594 81.40625 C 55.097656 82.308594 55.550781 83.667969 56.042969 84.625 C 57.988281 88.378906 60.101562 92.046875 62.152344 95.746094 Z M 42.632812 67.757812 C 42.785156 64.546875 40.671875 62.382812 39.671875 59.839844 C 38.628906 57.1875 37.308594 54.640625 36.109375 52.046875 C 34.863281 49.351562 33.605469 46.65625 32.375 43.953125 C 31.257812 41.503906 30.175781 39.039062 29.078125 36.578125 C 30.105469 44.132812 39.632812 65.476562 42.632812 67.757812 Z M 69.199219 95.929688 C 69.113281 95.359375 69.160156 94.714844 68.914062 94.222656 C 66.253906 88.917969 63.550781 83.632812 60.84375 78.347656 C 60.691406 78.050781 60.378906 77.832031 60.144531 77.578125 C 59.9375 77.699219 59.726562 77.824219 59.519531 77.945312 C 60.050781 79.082031 60.554688 80.234375 61.121094 81.355469 C 61.757812 82.617188 62.421875 83.867188 63.121094 85.09375 C 65.164062 88.683594 67.234375 92.265625 69.292969 95.847656 C 71.0625 100.941406 73.945312 105.433594 76.914062 109.886719 C 75.460938 106.441406 73.742188 103.136719 71.910156 99.890625 C 71.125 98.503906 70.109375 97.246094 69.199219 95.929688 Z M 94.226562 29.199219 C 94.988281 28.617188 95.757812 28.03125 96.519531 27.449219 C 96.292969 27.25 96.066406 27.050781 95.839844 26.851562 C 95.324219 27.660156 94.8125 28.46875 94.300781 29.277344 C 92.9375 30.628906 91.578125 31.984375 90.214844 33.339844 C 92.050781 32.398438 93.875 31.421875 94.226562 29.199219 Z M 64.21875 57.078125 C 65.421875 56 66.738281 55.023438 67.804688 53.828125 C 76.839844 43.675781 85.769531 33.433594 94.859375 23.332031 C 97.804688 20.0625 101.101562 17.105469 104.304688 14.082031 C 105.105469 13.328125 106.175781 12.859375 107.082031 12.285156 C 108.613281 13.832031 107.765625 14.785156 106.925781 15.628906 C 105.414062 17.148438 103.804688 18.578125 102.273438 20.078125 C 101.378906 20.953125 100.550781 21.890625 99.886719 23.011719 C 102.953125 22.304688 104.132812 18.308594 108.652344 18.539062 C 92.148438 36.523438 77.769531 55.25 62.59375 73.875 C 66.691406 82.070312 70.714844 90.152344 74.777344 98.21875 C 76.382812 101.410156 78.363281 104.449219 79.636719 107.761719 C 81.371094 112.28125 82.589844 116.996094 84.03125 121.625 C 82.296875 122.152344 82.296875 122.152344 78.421875 117.25 C 77.851562 118.644531 77.492188 120.667969 75.367188 118.796875 C 75.402344 122.070312 78.519531 124.316406 77.539062 128.414062 C 75.632812 126.707031 74.265625 125.480469 72.898438 124.257812 C 72.734375 124.371094 72.570312 124.488281 72.410156 124.605469 C 72.753906 125.882812 73.097656 127.160156 73.601562 129.027344 C 72.558594 128.589844 71.765625 128.507812 71.53125 128.105469 C 70.9375 127.085938 70.550781 125.9375 70.15625 124.816406 C 66.074219 113.28125 59.753906 102.886719 53.652344 92.382812 C 52.882812 91.054688 52.109375 89.726562 51.050781 87.914062 C 49.960938 89.34375 49.058594 90.507812 48.175781 91.691406 C 40.835938 101.515625 33.539062 111.367188 26.148438 121.152344 C 22.632812 125.808594 18.964844 130.355469 15.308594 134.90625 C 14.761719 135.585938 13.898438 136.015625 13.078125 136.640625 C 11.15625 134.191406 14.085938 132.902344 13.984375 130.582031 C 11.398438 132.238281 10.859375 136.445312 6.65625 135.738281 C 7.433594 134.160156 8.089844 132.832031 8.773438 131.441406 C 7.433594 131.382812 6.238281 131.332031 4.851562 131.269531 C 3.691406 132.09375 3.394531 134.601562 0.269531 134.167969 C 1.558594 132.265625 2.527344 130.84375 3.496094 129.421875 C 4.328125 128.199219 4.914062 127.183594 4.8125 125.371094 C 4.703125 123.351562 6.003906 121.0625 7.179688 119.199219 C 10.289062 114.273438 13.652344 109.503906 16.9375 104.6875 C 23.03125 95.761719 29.128906 86.839844 35.246094 77.929688 C 36.664062 75.867188 38.089844 73.800781 39.65625 71.851562 C 40.792969 70.441406 40.75 69.214844 39.992188 67.617188 C 36.886719 61.058594 33.714844 54.515625 30.945312 47.808594 C 28.683594 42.324219 26.929688 36.625 25.015625 31 C 24.410156 29.214844 24.464844 27.46875 26.230469 26.277344 C 25.753906 24.566406 25.507812 22.875 24.820312 21.390625 C 23.480469 18.496094 24.152344 16.34375 26.773438 14.632812 C 29.15625 14.535156 28.113281 17.042969 29.34375 18.085938 C 30.003906 17.925781 30.761719 17.738281 31.859375 17.46875 C 33.664062 22.703125 35.445312 27.871094 37.226562 33.042969 C 37.484375 32.972656 37.742188 32.902344 38 32.828125 C 37.941406 32.207031 37.996094 31.546875 37.804688 30.96875 C 36.878906 28.144531 35.777344 25.371094 34.957031 22.515625 C 34.582031 21.210938 34.863281 19.722656 34.558594 18.382812 C 34.0625 16.214844 33.410156 14.070312 32.667969 11.96875 C 32.191406 10.628906 31.4375 9.386719 32.921875 7.730469 C 34.746094 9.625 34.613281 12.148438 35.433594 14.226562 C 36.304688 16.441406 36.972656 18.734375 37.742188 20.984375 C 38.507812 23.210938 39.292969 25.425781 40.726562 27.457031 C 40.179688 25.445312 39.59375 23.441406 39.097656 21.414062 C 38.636719 19.515625 37.175781 17.550781 39.589844 15.144531 C 42.222656 21.515625 44.171875 27.683594 46.539062 33.6875 C 48.890625 39.65625 51.253906 45.617188 53.855469 52.191406 C 55.230469 50.617188 56.289062 49.539062 57.195312 48.351562 C 67.972656 34.214844 79.253906 20.5 91.335938 7.460938 C 93.425781 5.210938 96.015625 3.421875 98.433594 1.492188 C 98.90625 1.113281 99.648438 1.074219 100.582031 0.78125 C 100.589844 4.273438 97.136719 5.496094 96.578125 8.277344 C 98.066406 10.023438 99.929688 10.636719 102.472656 9.929688 C 102.257812 10.777344 102.285156 11.304688 102.035156 11.578125 C 98.816406 15.078125 95.453125 18.449219 92.335938 22.035156 C 88.742188 26.164062 85.328125 30.449219 81.886719 34.710938 C 76.195312 41.753906 70.539062 48.828125 64.890625 55.902344 C 64.609375 56.253906 64.492188 56.738281 64.300781 57.164062 C 63.796875 57.703125 63.285156 58.238281 62.777344 58.777344 C 62.960938 58.910156 63.144531 59.042969 63.332031 59.175781 C 63.625 58.476562 63.925781 57.777344 64.21875 57.078125 "
                        fill-opacity="1" fill-rule="nonzero" />
                </g>
            </g>
        </g>
    </g>
    <g fill="#545454" fill-opacity="1">
        <g transform="translate(168.831486, 191.232585)">
            <g>
                <path
                    d="M 10.457031 -8.503906 L 0.582031 -8.503906 L 0.582031 -6.988281 L 4.703125 -6.988281 L 4.703125 -0.0117188 L 6.289062 -0.0117188 L 6.289062 -6.988281 L 10.457031 -6.988281 Z M 10.457031 -8.503906 " />
            </g>
        </g>
    </g>
    <g fill="#545454" fill-opacity="1">
        <g transform="translate(181.828427, 191.232585)">
            <g>
                <path
                    d="M 10.242188 -8.503906 L 8.65625 -8.503906 L 8.65625 -5.03125 L 2.453125 -5.03125 L 2.453125 -3.46875 L 8.65625 -3.46875 L 8.65625 -0.0117188 L 10.242188 -0.0117188 Z M 1.953125 -8.503906 L 0.355469 -8.503906 L 0.355469 -0.0117188 L 1.953125 -0.0117188 Z M 1.953125 -8.503906 " />
            </g>
        </g>
    </g>
    <g fill="#545454" fill-opacity="1">
        <g transform="translate(194.766191, 191.232585)">
            <g>
                <path
                    d="M 10.539062 -1.550781 L 3.066406 -1.550781 C 2.488281 -1.550781 2.191406 -1.800781 2.191406 -2.308594 L 2.191406 -3.46875 L 10.539062 -3.46875 L 10.539062 -5.03125 L 2.191406 -5.03125 L 2.191406 -6.21875 C 2.191406 -6.632812 2.640625 -6.988281 3.066406 -6.988281 L 10.539062 -6.988281 L 10.539062 -8.503906 L 3.066406 -8.503906 C 1.8125 -8.503906 0.582031 -7.484375 0.582031 -6.21875 L 0.582031 -2.308594 C 0.582031 -0.960938 1.695312 -0.0117188 3.066406 -0.0117188 L 10.539062 -0.0117188 Z M 10.539062 -1.550781 " />
            </g>
        </g>
    </g>
    <g fill="#545454" fill-opacity="1">
        <g transform="translate(153.996575, 158.696898)">
            <g>
                <path
                    d="M 13.511719 -11.21875 L 11.421875 -11.21875 L 11.421875 -6.640625 L 3.234375 -6.640625 L 3.234375 -4.578125 L 11.421875 -4.578125 L 11.421875 -0.015625 L 13.511719 -0.015625 Z M 2.578125 -11.21875 L 0.46875 -11.21875 L 0.46875 -0.015625 L 2.578125 -0.015625 Z M 2.578125 -11.21875 " />
            </g>
        </g>
    </g>
    <g fill="#545454" fill-opacity="1">
        <g transform="translate(171.071317, 158.696898)">
            <g>
                <path
                    d="M 11.765625 -8.1875 C 11.25 -10.203125 10.15625 -11.203125 8.484375 -11.203125 L 5.640625 -11.203125 C 3.96875 -11.203125 2.890625 -10.203125 2.375 -8.1875 L 0.265625 0 L 2.515625 0 L 4.625 -8.1875 C 4.796875 -8.859375 5.1875 -9.203125 5.78125 -9.203125 L 8.359375 -9.203125 C 8.921875 -9.203125 9.296875 -8.859375 9.484375 -8.1875 L 9.90625 -6.640625 L 5.0625 -6.640625 L 4.578125 -4.578125 L 10.453125 -4.578125 L 11.625 0 L 13.871094 0 Z M 11.765625 -8.1875 " />
            </g>
        </g>
    </g>
    <g fill="#545454" fill-opacity="1">
        <g transform="translate(188.036712, 158.696898)">
            <g>
                <path
                    d="M 13.902344 -2.046875 L 4.046875 -2.046875 C 3.28125 -2.046875 2.890625 -2.375 2.890625 -3.046875 L 2.890625 -8.203125 C 2.890625 -8.75 3.484375 -9.21875 4.046875 -9.21875 L 13.902344 -9.21875 L 13.902344 -11.21875 L 4.046875 -11.21875 C 2.390625 -11.21875 0.765625 -9.828125 0.765625 -8.203125 L 0.765625 -3.046875 C 0.765625 -1.265625 2.265625 -0.015625 4.046875 -0.015625 L 13.902344 -0.015625 Z M 13.902344 -2.046875 " />
            </g>
        </g>
    </g>
    <g fill="#545454" fill-opacity="1">
        <g transform="translate(205.283286, 158.696898)">
            <g>
                <path
                    d="M 14.371094 -1.34375 C 14.371094 -3.234375 13.542969 -5.015625 12.203125 -5.625 C 13.402344 -6.078125 14.371094 -8.15625 14.371094 -10.09375 L 14.371094 -11.203125 L 12.261719 -11.203125 L 12.261719 -9.515625 C 12.261719 -7.765625 10.9375 -6.640625 9.1875 -6.640625 L 3.65625 -6.640625 L 3.65625 -4.578125 L 9.1875 -4.578125 C 10.84375 -4.578125 12.261719 -3.40625 12.261719 -1.734375 L 12.261719 -0.015625 L 14.371094 -0.015625 Z M 2.796875 -11.203125 L 0.6875 -11.203125 L 0.6875 -0.015625 L 2.796875 -0.015625 Z M 2.796875 -11.203125 " />
            </g>
        </g>
    </g>
    <g fill="#545454" fill-opacity="1">
        <g transform="translate(146.697952, 227.19148)">
            <g>
                <path
                    d="M 14.359375 -3.042969 C 14.359375 -4.464844 14.203125 -4.949219 13.53125 -5.617188 C 14.078125 -6.179688 14.359375 -6.835938 14.359375 -7.570312 L 14.359375 -8.179688 C 14.359375 -9.941406 12.859375 -11.191406 11.097656 -11.191406 L 0.6875 -11.191406 L 0.6875 -0.015625 L 11.097656 -0.015625 C 12.859375 -0.015625 14.359375 -1.265625 14.359375 -3.042969 Z M 12.25 -3.042969 C 12.25 -2.371094 11.863281 -2.042969 11.097656 -2.042969 L 2.792969 -2.042969 L 2.792969 -9.191406 L 11.097656 -9.191406 C 11.863281 -9.191406 12.25 -8.847656 12.25 -8.179688 L 12.25 -7.570312 C 12.25 -6.945312 11.863281 -6.632812 11.097656 -6.632812 L 3.652344 -6.632812 L 3.652344 -4.574219 L 11.097656 -4.574219 C 11.707031 -4.574219 12.25 -4.230469 12.25 -3.652344 Z M 12.25 -3.042969 " />
            </g>
        </g>
    </g>
    <g fill="#545454" fill-opacity="1">
        <g transform="translate(163.41943, 227.19148)">
            <g>
                <path
                    d="M 14.359375 -11.207031 L 12.25 -11.207031 L 12.25 -3.042969 C 12.25 -2.371094 11.863281 -2.042969 11.097656 -2.042969 L 4.042969 -2.042969 C 3.277344 -2.042969 2.886719 -2.371094 2.886719 -3.042969 L 2.886719 -11.207031 L 0.765625 -11.207031 L 0.765625 -3.042969 C 0.765625 -1.265625 2.230469 -0.015625 4.042969 -0.015625 L 11.097656 -0.015625 C 12.859375 -0.015625 14.359375 -1.28125 14.359375 -3.042969 Z M 14.359375 -11.207031 " />
            </g>
        </g>
    </g>
    <g fill="#545454" fill-opacity="1">
        <g transform="translate(180.20329, 227.19148)">
            <g>
                <path
                    d="M 14.359375 -3.652344 C 14.359375 -4.371094 14.078125 -5.027344 13.53125 -5.617188 C 14.078125 -6.195312 14.359375 -6.835938 14.359375 -7.570312 L 14.359375 -8.179688 C 14.359375 -9.957031 12.875 -11.191406 11.097656 -11.191406 L 0.6875 -11.191406 L 0.6875 -0.015625 L 2.792969 -0.015625 L 2.792969 -9.191406 L 11.097656 -9.191406 C 11.863281 -9.191406 12.25 -8.847656 12.25 -8.179688 L 12.25 -7.570312 C 12.25 -6.945312 11.863281 -6.632812 11.097656 -6.632812 L 3.449219 -6.632812 L 3.449219 -4.574219 L 11.097656 -4.574219 C 11.707031 -4.574219 12.25 -4.230469 12.25 -3.652344 L 12.25 -0.015625 L 14.359375 -0.015625 Z M 14.359375 -3.652344 " />
            </g>
        </g>
    </g>
    <g fill="#545454" fill-opacity="1">
        <g transform="translate(197.236712, 227.19148)">
            <g>
                <path
                    d="M 13.921875 -3.574219 C 13.921875 -5.242188 12.328125 -6.601562 10.660156 -6.601562 L 4.042969 -6.601562 L 4.042969 -4.589844 L 10.660156 -4.589844 C 11.222656 -4.589844 11.832031 -4.136719 11.832031 -3.574219 L 11.832031 -3.042969 C 11.832031 -2.371094 11.441406 -2.042969 10.660156 -2.042969 L 4.042969 -2.042969 C 3.277344 -2.042969 2.886719 -2.371094 2.886719 -3.042969 L 2.886719 -8.195312 C 2.886719 -8.738281 3.480469 -9.207031 4.042969 -9.207031 L 13.75 -9.207031 L 13.75 -11.207031 L 4.042969 -11.207031 C 2.386719 -11.207031 0.765625 -9.863281 0.765625 -8.195312 L 0.765625 -3.042969 C 0.765625 -1.265625 2.230469 -0.015625 4.042969 -0.015625 L 10.660156 -0.015625 C 12.453125 -0.015625 13.921875 -1.265625 13.921875 -3.042969 Z M 13.921875 -3.574219 " />
            </g>
        </g>
    </g>
    <g fill="#545454" fill-opacity="1">
        <g transform="translate(213.474664, 227.19148)">
            <g>
                <path
                    d="M 13.5 -11.207031 L 11.410156 -11.207031 L 11.410156 -6.632812 L 3.230469 -6.632812 L 3.230469 -4.574219 L 11.410156 -4.574219 L 11.410156 -0.015625 L 13.5 -0.015625 Z M 2.574219 -11.207031 L 0.46875 -11.207031 L 0.46875 -0.015625 L 2.574219 -0.015625 Z M 2.574219 -11.207031 " />
            </g>
        </g>
    </g>
</svg>