<svg width="422" height="92" viewBox="0 0 422 92" fill="none" xmlns="http://www.w3.org/2000/svg">
<g clip-path="url(#clip0_1_252)">
<path fill-rule="evenodd" clip-rule="evenodd" d="M25.1 83.09C25.1 86.52 22.32 89.29 18.9 89.29H6.49999C3.06999 89.29 0.299988 86.52 0.299988 83.09C0.299988 79.66 3.07999 76.89 6.49999 76.89H18.9C22.32 76.89 25.1 79.67 25.1 83.09Z" fill="#3C104D"/>
<path fill-rule="evenodd" clip-rule="evenodd" d="M25.1 45.88C25.1 49.31 22.32 52.08 18.9 52.08H6.49999C3.06999 52.08 0.299988 49.3 0.299988 45.88C0.299988 42.46 3.07999 39.68 6.49999 39.68H18.9C22.32 39.68 25.1 42.46 25.1 45.88Z" fill="#3C104D"/>
<path fill-rule="evenodd" clip-rule="evenodd" d="M25.1 8.67998C25.1 12.1 22.32 14.88 18.9 14.88H6.49999C3.06999 14.88 0.299988 12.1 0.299988 8.67998C0.299988 5.25998 3.07999 2.47998 6.49999 2.47998H18.9C22.32 2.47998 25.1 5.25998 25.1 8.67998Z" fill="#3C104D"/>
<path fill-rule="evenodd" clip-rule="evenodd" d="M223.53 83.09C223.53 86.52 220.75 89.29 217.33 89.29H204.93C201.51 89.29 198.73 86.52 198.73 83.09C198.73 79.66 201.51 76.89 204.93 76.89H217.33C220.75 76.89 223.53 79.67 223.53 83.09Z" fill="#3C104D"/>
<path fill-rule="evenodd" clip-rule="evenodd" d="M223.53 45.88C223.53 49.31 220.75 52.08 217.33 52.08H204.93C201.51 52.08 198.73 49.3 198.73 45.88C198.73 42.46 201.51 39.68 204.93 39.68H217.33C220.75 39.68 223.53 42.46 223.53 45.88Z" fill="#3C104D"/>
<path fill-rule="evenodd" clip-rule="evenodd" d="M223.53 8.67998C223.53 12.1 220.75 14.88 217.33 14.88H204.93C201.51 14.88 198.73 12.1 198.73 8.67998C198.73 5.25998 201.51 2.47998 204.93 2.47998H217.33C220.75 2.47998 223.53 5.25998 223.53 8.67998Z" fill="#3C104D"/>
<path fill-rule="evenodd" clip-rule="evenodd" d="M421.96 83.09C421.96 86.52 419.19 89.29 415.76 89.29H403.36C399.94 89.29 397.16 86.52 397.16 83.09C397.16 79.66 399.94 76.89 403.36 76.89H415.76C419.19 76.89 421.96 79.67 421.96 83.09Z" fill="#3C104D"/>
<path fill-rule="evenodd" clip-rule="evenodd" d="M421.96 45.88C421.96 49.31 419.19 52.08 415.76 52.08H403.36C399.94 52.08 397.16 49.3 397.16 45.88C397.16 42.46 399.94 39.68 403.36 39.68H415.76C419.19 39.68 421.96 42.46 421.96 45.88Z" fill="#3C104D"/>
<path fill-rule="evenodd" clip-rule="evenodd" d="M421.96 8.67998C421.96 12.1 419.19 14.88 415.76 14.88H403.36C399.94 14.88 397.16 12.1 397.16 8.67998C397.16 5.25998 399.94 2.47998 403.36 2.47998H415.76C419.19 2.47998 421.96 5.25998 421.96 8.67998Z" fill="#3C104D"/>
<path fill-rule="evenodd" clip-rule="evenodd" d="M74.71 8.67998C74.71 12.1 71.93 14.88 68.51 14.88H56.11C52.69 14.88 49.91 12.1 49.91 8.67998C49.91 5.25998 52.69 2.47998 56.11 2.47998H68.51C71.93 2.47998 74.71 5.25998 74.71 8.67998Z" fill="#3C104D"/>
<path fill-rule="evenodd" clip-rule="evenodd" d="M173.93 8.67998C173.93 12.1 171.15 14.88 167.73 14.88H155.33C151.91 14.88 149.13 12.1 149.13 8.67998C149.13 5.25998 151.91 2.47998 155.33 2.47998H167.73C171.15 2.47998 173.93 5.25998 173.93 8.67998Z" fill="#3C104D"/>
<path fill-rule="evenodd" clip-rule="evenodd" d="M273.14 83.09C273.14 86.52 270.37 89.29 266.94 89.29H254.54C251.11 89.29 248.34 86.52 248.34 83.09C248.34 79.66 251.11 76.89 254.54 76.89H266.94C270.37 76.89 273.14 79.67 273.14 83.09Z" fill="#3C104D"/>
<path fill-rule="evenodd" clip-rule="evenodd" d="M372.35 83.27C372.35 86.69 369.58 89.47 366.15 89.47H353.75C350.32 89.47 347.55 86.69 347.55 83.27C347.55 79.85 350.32 77.07 353.75 77.07H366.15C369.57 77.07 372.35 79.85 372.35 83.27Z" fill="#3C104D"/>
<path fill-rule="evenodd" clip-rule="evenodd" d="M120.6 8.68C120.6 13.48 116.71 17.36 111.92 17.36C107.13 17.36 103.24 13.48 103.24 8.68C103.24 3.88 107.13 0 111.92 0C116.71 0 120.6 3.89 120.6 8.68Z" fill="#3C104D"/>
<path fill-rule="evenodd" clip-rule="evenodd" d="M120.6 45.89C120.6 50.68 116.71 54.57 111.92 54.57C107.13 54.57 103.24 50.69 103.24 45.89C103.24 41.09 107.13 37.21 111.92 37.21C116.71 37.21 120.6 41.1 120.6 45.89Z" fill="#3C104D"/>
<path fill-rule="evenodd" clip-rule="evenodd" d="M319.02 83.07C319.02 87.86 315.13 91.75 310.34 91.75C305.55 91.75 301.66 87.86 301.66 83.07C301.66 78.28 305.54 74.39 310.34 74.39C315.14 74.39 319.02 78.28 319.02 83.07Z" fill="#3C104D"/>
<path fill-rule="evenodd" clip-rule="evenodd" d="M319.02 45.89C319.02 50.68 315.13 54.57 310.34 54.57C305.55 54.57 301.66 50.69 301.66 45.89C301.66 41.09 305.54 37.21 310.34 37.21C315.14 37.21 319.02 41.1 319.02 45.89Z" fill="#3C104D"/>
</g>
<defs>
<clipPath id="clip0_1_252">
<rect width="422" height="92" fill="white"/>
</clipPath>
</defs>
</svg>
